<?xml version="1.0" encoding="utf-8"?>
<!-- Generator: Adobe Illustrator 15.1.0, SVG Export Plug-In . SVG Version: 6.00 Build 0)  -->
<!DOCTYPE svg PUBLIC "-//W3C//DTD SVG 1.1//EN" "http://www.w3.org/Graphics/SVG/1.1/DTD/svg11.dtd">
<svg version="1.1" id="Layer_1" xmlns="http://www.w3.org/2000/svg" xmlns:xlink="http://www.w3.org/1999/xlink" x="0px" y="0px"
	 width="141.732px" height="141.732px" viewBox="0 0 141.732 141.732" enable-background="new 0 0 141.732 141.732"
	 xml:space="preserve">
<path d="M61.616,7.624c-28.363,0-51.359,22.996-51.359,51.358c0,28.368,22.996,51.358,51.359,51.358
	c28.368,0,51.359-22.99,51.359-51.358C112.975,30.62,89.983,7.624,61.616,7.624z M61.616,98.927
	c-22.059,0-39.948-17.885-39.948-39.943c0-22.06,17.89-39.948,39.948-39.948s39.944,17.889,39.944,39.948
	C101.56,81.042,83.675,98.927,61.616,98.927z"/>
<path d="M90.777,92.183l4.038-4.038c1.106-1.116,2.923-1.116,4.039,0l36.315,36.315c1.106,1.116,1.106,2.923,0,4.039
	l-4.038,4.038c-1.115,1.106-2.923,1.106-4.039,0L90.777,96.221C89.661,95.105,89.661,93.29,90.777,92.183z"/>
</svg>
